<mxfile host="Electron" modified="2023-12-22T14:12:32.234Z" agent="Mozilla/5.0 (Windows NT 10.0; Win64; x64) AppleWebKit/537.36 (KHTML, like Gecko) draw.io/22.1.2 Chrome/114.0.5735.289 Electron/25.9.4 Safari/537.36" etag="wiBKHDe6Vg6-JLvlL785" version="22.1.2" type="device">
  <diagram name="Page-1" id="RIk8yOrShmxQJZ7-wtts">
    <mxGraphModel dx="780" dy="544" grid="1" gridSize="10" guides="1" tooltips="1" connect="1" arrows="1" fold="1" page="1" pageScale="1" pageWidth="827" pageHeight="583" math="0" shadow="0">
      <root>
        <mxCell id="0" />
        <mxCell id="1" parent="0" />
        <mxCell id="F3GAegyko_tSYRjLi3tg-1" value="Payée" style="rounded=1;whiteSpace=wrap;html=1;" vertex="1" parent="1">
          <mxGeometry x="220" y="110" width="120" height="60" as="geometry" />
        </mxCell>
        <mxCell id="F3GAegyko_tSYRjLi3tg-2" value="&lt;font color=&quot;#ff0000&quot;&gt;&lt;strike&gt;Listée&lt;/strike&gt;&lt;/font&gt;&lt;br&gt;&lt;font color=&quot;#00cc00&quot;&gt;Récoltée&lt;/font&gt;" style="rounded=1;whiteSpace=wrap;html=1;" vertex="1" parent="1">
          <mxGeometry x="440" y="110" width="120" height="60" as="geometry" />
        </mxCell>
        <mxCell id="F3GAegyko_tSYRjLi3tg-3" value="" style="ellipse;whiteSpace=wrap;html=1;aspect=fixed;fillColor=#000000;" vertex="1" parent="1">
          <mxGeometry x="90" y="130" width="20" height="20" as="geometry" />
        </mxCell>
        <mxCell id="F3GAegyko_tSYRjLi3tg-5" value="" style="ellipse;whiteSpace=wrap;html=1;aspect=fixed;fillColor=#000000;" vertex="1" parent="1">
          <mxGeometry x="270" y="390" width="20" height="20" as="geometry" />
        </mxCell>
        <mxCell id="F3GAegyko_tSYRjLi3tg-6" value="" style="ellipse;whiteSpace=wrap;html=1;aspect=fixed;fillColor=none;" vertex="1" parent="1">
          <mxGeometry x="265" y="385" width="30" height="30" as="geometry" />
        </mxCell>
        <mxCell id="F3GAegyko_tSYRjLi3tg-7" value="" style="endArrow=open;html=1;rounded=0;endFill=0;exitX=1;exitY=0.5;exitDx=0;exitDy=0;entryX=0;entryY=0.5;entryDx=0;entryDy=0;" edge="1" parent="1" source="F3GAegyko_tSYRjLi3tg-3" target="F3GAegyko_tSYRjLi3tg-1">
          <mxGeometry width="50" height="50" relative="1" as="geometry">
            <mxPoint x="200" y="230" as="sourcePoint" />
            <mxPoint x="250" y="180" as="targetPoint" />
          </mxGeometry>
        </mxCell>
        <mxCell id="F3GAegyko_tSYRjLi3tg-8" value="" style="endArrow=open;html=1;rounded=0;endFill=0;entryX=0;entryY=0.5;entryDx=0;entryDy=0;exitX=1;exitY=0.5;exitDx=0;exitDy=0;" edge="1" parent="1" source="F3GAegyko_tSYRjLi3tg-1" target="F3GAegyko_tSYRjLi3tg-2">
          <mxGeometry width="50" height="50" relative="1" as="geometry">
            <mxPoint x="350" y="140" as="sourcePoint" />
            <mxPoint x="230" y="150" as="targetPoint" />
          </mxGeometry>
        </mxCell>
        <mxCell id="F3GAegyko_tSYRjLi3tg-9" value="Disposée" style="rounded=1;whiteSpace=wrap;html=1;" vertex="1" parent="1">
          <mxGeometry x="440" y="240" width="120" height="60" as="geometry" />
        </mxCell>
        <mxCell id="F3GAegyko_tSYRjLi3tg-10" value="" style="endArrow=open;html=1;rounded=0;endFill=0;entryX=0.5;entryY=0;entryDx=0;entryDy=0;exitX=0.5;exitY=1;exitDx=0;exitDy=0;" edge="1" parent="1" source="F3GAegyko_tSYRjLi3tg-2" target="F3GAegyko_tSYRjLi3tg-9">
          <mxGeometry width="50" height="50" relative="1" as="geometry">
            <mxPoint x="350" y="150" as="sourcePoint" />
            <mxPoint x="450" y="150" as="targetPoint" />
          </mxGeometry>
        </mxCell>
        <mxCell id="F3GAegyko_tSYRjLi3tg-11" value="Abandonnée" style="rounded=1;whiteSpace=wrap;html=1;" vertex="1" parent="1">
          <mxGeometry x="220" y="240" width="120" height="60" as="geometry" />
        </mxCell>
        <mxCell id="F3GAegyko_tSYRjLi3tg-12" value="Retirée" style="rounded=1;whiteSpace=wrap;html=1;" vertex="1" parent="1">
          <mxGeometry x="440" y="370" width="120" height="60" as="geometry" />
        </mxCell>
        <mxCell id="F3GAegyko_tSYRjLi3tg-13" value="" style="endArrow=open;html=1;rounded=0;endFill=0;entryX=0.5;entryY=0;entryDx=0;entryDy=0;exitX=0.5;exitY=1;exitDx=0;exitDy=0;" edge="1" parent="1" source="F3GAegyko_tSYRjLi3tg-9" target="F3GAegyko_tSYRjLi3tg-12">
          <mxGeometry width="50" height="50" relative="1" as="geometry">
            <mxPoint x="590" y="370" as="sourcePoint" />
            <mxPoint x="510" y="250" as="targetPoint" />
          </mxGeometry>
        </mxCell>
        <mxCell id="F3GAegyko_tSYRjLi3tg-14" value="" style="endArrow=open;html=1;rounded=0;endFill=0;entryX=1;entryY=0.5;entryDx=0;entryDy=0;exitX=0;exitY=0.5;exitDx=0;exitDy=0;" edge="1" parent="1" source="F3GAegyko_tSYRjLi3tg-9" target="F3GAegyko_tSYRjLi3tg-11">
          <mxGeometry width="50" height="50" relative="1" as="geometry">
            <mxPoint x="380" y="240" as="sourcePoint" />
            <mxPoint x="510" y="380" as="targetPoint" />
          </mxGeometry>
        </mxCell>
        <mxCell id="F3GAegyko_tSYRjLi3tg-15" value="&lt;strike&gt;&lt;font color=&quot;#ff0000&quot;&gt;Payer &lt;/font&gt;&lt;/strike&gt;&lt;br&gt;&lt;font color=&quot;#00cc00&quot;&gt;Passer&lt;/font&gt;&lt;br&gt;commande" style="text;html=1;align=center;verticalAlign=middle;resizable=0;points=[];autosize=1;strokeColor=none;fillColor=none;" vertex="1" parent="1">
          <mxGeometry x="121" y="77" width="80" height="60" as="geometry" />
        </mxCell>
        <mxCell id="F3GAegyko_tSYRjLi3tg-19" value="" style="endArrow=open;html=1;rounded=0;endFill=0;entryX=1;entryY=0.5;entryDx=0;entryDy=0;exitX=0;exitY=0.5;exitDx=0;exitDy=0;" edge="1" parent="1" source="F3GAegyko_tSYRjLi3tg-12" target="F3GAegyko_tSYRjLi3tg-6">
          <mxGeometry width="50" height="50" relative="1" as="geometry">
            <mxPoint x="450" y="280" as="sourcePoint" />
            <mxPoint x="680" y="395" as="targetPoint" />
          </mxGeometry>
        </mxCell>
        <mxCell id="F3GAegyko_tSYRjLi3tg-20" value="" style="endArrow=open;html=1;rounded=0;endFill=0;entryX=0.5;entryY=0;entryDx=0;entryDy=0;exitX=0.5;exitY=1;exitDx=0;exitDy=0;" edge="1" parent="1" source="F3GAegyko_tSYRjLi3tg-11" target="F3GAegyko_tSYRjLi3tg-6">
          <mxGeometry width="50" height="50" relative="1" as="geometry">
            <mxPoint x="570" y="410" as="sourcePoint" />
            <mxPoint x="690" y="405" as="targetPoint" />
          </mxGeometry>
        </mxCell>
        <mxCell id="F3GAegyko_tSYRjLi3tg-21" value="&lt;font color=&quot;#ff0000&quot;&gt;&lt;strike&gt;Lister&lt;br&gt;commandes&lt;/strike&gt;&lt;/font&gt;&lt;br&gt;&lt;font color=&quot;#00cc00&quot;&gt;Récolter&lt;br&gt;commandes&lt;/font&gt;" style="text;html=1;align=center;verticalAlign=middle;resizable=0;points=[];autosize=1;strokeColor=none;fillColor=none;" vertex="1" parent="1">
          <mxGeometry x="345" y="63" width="90" height="70" as="geometry" />
        </mxCell>
        <mxCell id="F3GAegyko_tSYRjLi3tg-22" value="Disposer&lt;br&gt;commandes&lt;br&gt;et pains" style="text;html=1;align=center;verticalAlign=middle;resizable=0;points=[];autosize=1;strokeColor=none;fillColor=none;" vertex="1" parent="1">
          <mxGeometry x="510" y="173" width="90" height="60" as="geometry" />
        </mxCell>
        <mxCell id="F3GAegyko_tSYRjLi3tg-23" value="Retirer&lt;br&gt;commandes&lt;br&gt;&lt;font color=&quot;#00cc00&quot;&gt;abandonnées&lt;/font&gt;&lt;br&gt;et pains&lt;br&gt;périmés" style="text;html=1;align=center;verticalAlign=middle;resizable=0;points=[];autosize=1;strokeColor=none;fillColor=none;" vertex="1" parent="1">
          <mxGeometry x="340" y="176" width="100" height="90" as="geometry" />
        </mxCell>
        <mxCell id="F3GAegyko_tSYRjLi3tg-24" value="[ &amp;gt; 12h ]" style="text;html=1;align=center;verticalAlign=middle;resizable=0;points=[];autosize=1;strokeColor=none;fillColor=none;" vertex="1" parent="1">
          <mxGeometry x="355" y="277" width="70" height="30" as="geometry" />
        </mxCell>
        <mxCell id="F3GAegyko_tSYRjLi3tg-25" value="Retirer&lt;br&gt;commande" style="text;html=1;align=center;verticalAlign=middle;resizable=0;points=[];autosize=1;strokeColor=none;fillColor=none;" vertex="1" parent="1">
          <mxGeometry x="515" y="317" width="80" height="40" as="geometry" />
        </mxCell>
      </root>
    </mxGraphModel>
  </diagram>
</mxfile>
